<mxfile host="65bd71144e">
    <diagram id="pOqud3Csru5kn6OA6R6e" name="페이지-1">
        <mxGraphModel dx="1566" dy="2085" grid="1" gridSize="10" guides="1" tooltips="1" connect="1" arrows="0" fold="1" page="1" pageScale="1" pageWidth="827" pageHeight="1169" math="0" shadow="0">
            <root>
                <mxCell id="0"/>
                <mxCell id="1" parent="0"/>
                <mxCell id="53" value="YES" style="edgeStyle=none;html=1;exitX=0.5;exitY=1;exitDx=0;exitDy=0;entryX=0.5;entryY=0;entryDx=0;entryDy=0;" parent="1" target="52" edge="1">
                    <mxGeometry relative="1" as="geometry">
                        <mxPoint x="140" y="-1010" as="sourcePoint"/>
                    </mxGeometry>
                </mxCell>
                <mxCell id="55" value="NO" style="edgeStyle=none;html=1;exitX=1;exitY=0.5;exitDx=0;exitDy=0;entryX=0;entryY=0.5;entryDx=0;entryDy=0;" parent="1" target="54" edge="1">
                    <mxGeometry relative="1" as="geometry">
                        <mxPoint x="200" y="-1030" as="sourcePoint"/>
                    </mxGeometry>
                </mxCell>
                <mxCell id="52" value="성공" style="rounded=0;whiteSpace=wrap;html=1;" parent="1" vertex="1">
                    <mxGeometry x="80" y="-720" width="120" height="40" as="geometry"/>
                </mxCell>
                <mxCell id="60" style="edgeStyle=none;html=1;exitX=0.5;exitY=1;exitDx=0;exitDy=0;entryX=0;entryY=0.5;entryDx=0;entryDy=0;" parent="1" source="54" target="56" edge="1">
                    <mxGeometry relative="1" as="geometry">
                        <Array as="points">
                            <mxPoint x="425" y="-990"/>
                            <mxPoint x="300" y="-990"/>
                            <mxPoint x="300" y="-965"/>
                        </Array>
                    </mxGeometry>
                </mxCell>
                <mxCell id="54" value="에러 코드 분류&lt;br&gt;401, 403, 404, 500" style="rhombus;whiteSpace=wrap;html=1;fillColor=#4D4D4D;" parent="1" vertex="1">
                    <mxGeometry x="320" y="-1060" width="210" height="60" as="geometry"/>
                </mxCell>
                <mxCell id="76" style="edgeStyle=none;html=1;exitX=1;exitY=0.5;exitDx=0;exitDy=0;entryX=0;entryY=0.5;entryDx=0;entryDy=0;" parent="1" source="56" target="75" edge="1">
                    <mxGeometry relative="1" as="geometry"/>
                </mxCell>
                <mxCell id="56" value="500" style="rounded=0;whiteSpace=wrap;html=1;" parent="1" vertex="1">
                    <mxGeometry x="320" y="-980" width="210" height="30" as="geometry"/>
                </mxCell>
                <mxCell id="74" style="edgeStyle=none;html=1;exitX=1;exitY=0.5;exitDx=0;exitDy=0;entryX=0.5;entryY=0;entryDx=0;entryDy=0;" parent="1" source="57" target="64" edge="1">
                    <mxGeometry relative="1" as="geometry">
                        <Array as="points">
                            <mxPoint x="570" y="-925"/>
                            <mxPoint x="570" y="-800"/>
                            <mxPoint x="425" y="-800"/>
                        </Array>
                    </mxGeometry>
                </mxCell>
                <mxCell id="57" value="404" style="rounded=0;whiteSpace=wrap;html=1;" parent="1" vertex="1">
                    <mxGeometry x="320" y="-940" width="210" height="30" as="geometry"/>
                </mxCell>
                <mxCell id="65" style="edgeStyle=none;html=1;exitX=1;exitY=0.5;exitDx=0;exitDy=0;entryX=0.5;entryY=0;entryDx=0;entryDy=0;" parent="1" source="58" target="64" edge="1">
                    <mxGeometry relative="1" as="geometry">
                        <Array as="points">
                            <mxPoint x="570" y="-885"/>
                            <mxPoint x="570" y="-800"/>
                            <mxPoint x="425" y="-800"/>
                        </Array>
                    </mxGeometry>
                </mxCell>
                <mxCell id="58" value="403" style="rounded=0;whiteSpace=wrap;html=1;" parent="1" vertex="1">
                    <mxGeometry x="320" y="-900" width="210" height="30" as="geometry"/>
                </mxCell>
                <mxCell id="67" style="edgeStyle=none;html=1;exitX=1;exitY=0.5;exitDx=0;exitDy=0;entryX=0.5;entryY=0;entryDx=0;entryDy=0;" parent="1" source="59" target="64" edge="1">
                    <mxGeometry relative="1" as="geometry">
                        <Array as="points">
                            <mxPoint x="570" y="-845"/>
                            <mxPoint x="570" y="-800"/>
                            <mxPoint x="425" y="-800"/>
                        </Array>
                    </mxGeometry>
                </mxCell>
                <mxCell id="59" value="401" style="rounded=0;whiteSpace=wrap;html=1;" parent="1" vertex="1">
                    <mxGeometry x="320" y="-860" width="210" height="30" as="geometry"/>
                </mxCell>
                <mxCell id="61" style="edgeStyle=none;html=1;exitX=0.5;exitY=1;exitDx=0;exitDy=0;entryX=0;entryY=0.5;entryDx=0;entryDy=0;" parent="1" target="57" edge="1">
                    <mxGeometry relative="1" as="geometry">
                        <mxPoint x="426" y="-1000" as="sourcePoint"/>
                        <mxPoint x="321" y="-965" as="targetPoint"/>
                        <Array as="points">
                            <mxPoint x="426" y="-990"/>
                            <mxPoint x="301" y="-990"/>
                            <mxPoint x="301" y="-925"/>
                        </Array>
                    </mxGeometry>
                </mxCell>
                <mxCell id="62" style="edgeStyle=none;html=1;exitX=0.5;exitY=1;exitDx=0;exitDy=0;entryX=0;entryY=0.5;entryDx=0;entryDy=0;" parent="1" target="58" edge="1">
                    <mxGeometry relative="1" as="geometry">
                        <mxPoint x="426" y="-1000" as="sourcePoint"/>
                        <mxPoint x="320" y="-925" as="targetPoint"/>
                        <Array as="points">
                            <mxPoint x="426" y="-990"/>
                            <mxPoint x="301" y="-990"/>
                            <mxPoint x="300" y="-885"/>
                        </Array>
                    </mxGeometry>
                </mxCell>
                <mxCell id="63" style="edgeStyle=none;html=1;exitX=0.5;exitY=1;exitDx=0;exitDy=0;entryX=0;entryY=0.5;entryDx=0;entryDy=0;" parent="1" target="59" edge="1">
                    <mxGeometry relative="1" as="geometry">
                        <mxPoint x="427" y="-1000" as="sourcePoint"/>
                        <mxPoint x="321" y="-885" as="targetPoint"/>
                        <Array as="points">
                            <mxPoint x="427" y="-990"/>
                            <mxPoint x="302" y="-990"/>
                            <mxPoint x="300" y="-845"/>
                        </Array>
                    </mxGeometry>
                </mxCell>
                <mxCell id="69" style="edgeStyle=none;html=1;exitX=0.499;exitY=0.82;exitDx=0;exitDy=0;entryX=0.5;entryY=0;entryDx=0;entryDy=0;exitPerimeter=0;" parent="1" source="64" target="68" edge="1">
                    <mxGeometry relative="1" as="geometry"/>
                </mxCell>
                <UserObject label="에러페이지" tooltip="/shared/view/error" id="64">
                    <mxCell style="shape=document;whiteSpace=wrap;html=1;boundedLbl=1;" parent="1" vertex="1">
                        <mxGeometry x="340" y="-770" width="170" height="50" as="geometry"/>
                    </mxCell>
                </UserObject>
                <mxCell id="71" value="YES" style="edgeStyle=none;html=1;exitX=0.5;exitY=1;exitDx=0;exitDy=0;entryX=0.5;entryY=0;entryDx=0;entryDy=0;" parent="1" source="68" target="70" edge="1">
                    <mxGeometry relative="1" as="geometry"/>
                </mxCell>
                <mxCell id="73" value="NO" style="edgeStyle=none;html=1;exitX=1;exitY=0.5;exitDx=0;exitDy=0;entryX=0;entryY=0.5;entryDx=0;entryDy=0;" parent="1" source="68" target="72" edge="1">
                    <mxGeometry relative="1" as="geometry"/>
                </mxCell>
                <mxCell id="68" value="토큰여부" style="rhombus;whiteSpace=wrap;html=1;fillColor=#4D4D4D;" parent="1" vertex="1">
                    <mxGeometry x="360" y="-690" width="130" height="50" as="geometry"/>
                </mxCell>
                <mxCell id="70" value="메인 페이지" style="shape=document;whiteSpace=wrap;html=1;boundedLbl=1;" parent="1" vertex="1">
                    <mxGeometry x="340" y="-590" width="170" height="50" as="geometry"/>
                </mxCell>
                <UserObject label="로그인" tooltip="/shared/view/member/login" id="72">
                    <mxCell style="shape=document;whiteSpace=wrap;html=1;boundedLbl=1;" parent="1" vertex="1">
                        <mxGeometry x="560" y="-690" width="170" height="50" as="geometry"/>
                    </mxCell>
                </UserObject>
                <mxCell id="75" value="Dialog표기" style="rounded=0;whiteSpace=wrap;html=1;" parent="1" vertex="1">
                    <mxGeometry x="590" y="-980" width="150" height="30" as="geometry"/>
                </mxCell>
                <mxCell id="78" value="API 요청" style="rounded=1;whiteSpace=wrap;html=1;fillColor=#004C99;" parent="1" vertex="1">
                    <mxGeometry x="80" y="-1050" width="120" height="40" as="geometry"/>
                </mxCell>
            </root>
        </mxGraphModel>
    </diagram>
</mxfile>